<?xml version="1.0" standalone="no"?>
<!DOCTYPE svg PUBLIC "-//W3C//DTD SVG 20010904//EN"
 "http://www.w3.org/TR/2001/REC-SVG-20010904/DTD/svg10.dtd">
<svg version="1.0" xmlns="http://www.w3.org/2000/svg"
 width="2000.000000pt" height="2000.000000pt" viewBox="0 0 2000.000000 2000.000000"
 preserveAspectRatio="xMidYMid meet">
<metadata>
Created by potrace 1.11, written by Peter Selinger 2001-2013
</metadata>
<g transform="translate(0.000000,2000.000000) scale(0.100000,-0.100000)"
fill="#000000" stroke="none">
<path d="M8515 18509 c-299 -43 -592 -209 -780 -444 -22 -28 -42 -52 -45 -55
-23 -20 -110 -168 -155 -262 -73 -153 -128 -327 -150 -478 -4 -24 -8 -47 -10
-50 -2 -3 -6 -41 -10 -85 -9 -101 -10 -103 -17 -111 -4 -3 -71 -32 -150 -64
-201 -81 -294 -123 -548 -248 -96 -48 -212 -108 -258 -134 -46 -26 -85 -48
-88 -48 -2 0 -86 -50 -186 -111 -589 -359 -1101 -772 -1573 -1271 -286 -302
-537 -616 -779 -975 -64 -95 -116 -175 -116 -177 0 -3 -13 -24 -29 -48 -172
-258 -441 -791 -595 -1179 -178 -452 -338 -1011 -410 -1439 -2 -14 -7 -43 -11
-65 -4 -22 -9 -49 -11 -60 -8 -43 -44 -315 -53 -400 -11 -96 -17 -177 -31
-370 -8 -122 -6 -867 3 -940 3 -22 8 -80 11 -130 4 -49 8 -101 11 -115 2 -14
7 -54 10 -90 4 -36 10 -92 15 -125 5 -33 12 -85 15 -115 3 -30 8 -62 10 -70 5
-16 10 -50 20 -120 10 -71 71 -361 109 -520 74 -313 230 -796 330 -1024 8 -17
30 -71 51 -119 154 -369 388 -809 623 -1167 79 -121 234 -344 278 -400 133
-168 262 -329 283 -353 178 -207 290 -325 476 -507 176 -172 175 -171 305
-285 710 -619 1521 -1098 2390 -1412 250 -90 579 -190 710 -217 14 -3 41 -10
60 -16 36 -11 434 -93 505 -105 154 -24 339 -50 435 -59 30 -4 71 -8 90 -11
46 -6 157 -15 310 -25 131 -8 866 -6 935 4 22 2 81 7 130 11 50 3 128 10 175
15 47 6 105 12 130 15 106 12 399 59 499 80 39 8 85 17 103 20 80 14 376 87
508 124 1055 301 1984 799 2830 1515 285 241 640 599 861 866 30 36 60 71 67
78 7 8 25 30 40 50 15 21 30 39 33 42 4 3 62 79 130 170 583 777 1007 1650
1253 2580 30 114 83 341 100 430 7 37 25 131 31 165 16 92 45 278 50 330 4 33
8 67 10 75 2 8 7 47 10 85 3 39 8 77 10 85 2 8 7 65 11 125 3 61 8 119 11 130
9 37 11 808 3 931 -10 146 -19 265 -25 319 -3 22 -7 63 -10 90 -17 155 -75
532 -90 585 -2 8 -7 31 -10 50 -21 130 -96 430 -174 695 -31 108 -134 407
-184 535 -134 347 -302 695 -504 1050 -88 155 -319 512 -335 518 -4 2 -8 8 -8
13 0 7 -137 199 -181 254 -9 11 -71 88 -137 170 -66 83 -131 161 -144 175 -13
14 -38 43 -57 65 -144 169 -448 475 -641 645 -46 41 -93 83 -105 94 -125 114
-512 407 -730 553 -331 220 -843 502 -1125 618 -36 14 -81 34 -100 42 -19 9
-89 38 -154 64 -102 40 -119 51 -121 71 -2 12 -6 52 -9 88 -14 134 -32 230
-67 345 -11 39 -25 84 -30 102 -24 80 -112 259 -172 348 -77 115 -186 235
-277 303 -19 15 -37 30 -40 33 -13 16 -130 85 -203 119 -198 91 -307 115 -522
115 -131 -1 -174 -5 -280 -29 -316 -73 -615 -275 -823 -558 -86 -117 -98 -137
-168 -275 -31 -62 -58 -113 -61 -113 -2 0 -20 34 -39 76 -31 67 -141 258 -165
288 -5 6 -36 45 -68 86 -75 96 -176 197 -265 266 -39 30 -75 58 -81 62 -20 15
-109 65 -175 98 -58 28 -195 79 -210 77 -3 -1 -12 3 -20 7 -15 8 -50 15 -150
30 -71 10 -238 9 -315 -1z"/>
</g>
</svg>
